<?xml version="1.0" standalone="no"?>
<!DOCTYPE svg PUBLIC "-//W3C//DTD SVG 20010904//EN"
 "http://www.w3.org/TR/2001/REC-SVG-20010904/DTD/svg10.dtd">
<svg version="1.0" xmlns="http://www.w3.org/2000/svg"
 width="1080.000000pt" height="1080.000000pt" viewBox="0 0 1080.000000 1080.000000"
 preserveAspectRatio="xMidYMid meet">

<g transform="translate(0.000000,1080.000000) scale(0.100000,-0.100000)"
fill="#000000" stroke="none">
<path d="M0 5400 l0 -5400 5400 0 5400 0 0 5400 0 5400 -5400 0 -5400 0 0
-5400z m5469 4496 c27 -28 28 -24 -40 -170 l-37 -79 -37 79 c-20 43 -38 89
-38 101 -1 11 -5 19 -9 16 -5 -2 -8 7 -8 20 0 64 115 87 169 33z m-302 -36
c15 -6 33 -16 38 -23 6 -7 19 -17 30 -23 17 -10 85 -118 85 -138 0 -4 -25 15
-55 43 -38 34 -67 52 -93 56 -71 12 -87 20 -90 47 -2 17 3 28 20 36 30 14 32
14 65 2z m533 -16 c22 -22 1 -48 -48 -56 -48 -8 -107 -37 -151 -73 -25 -21
-30 -23 -24 -8 8 24 41 72 73 105 52 56 112 69 150 32z m-474 -227 c21 -24 24
-38 24 -102 l0 -75 45 7 c41 5 47 3 74 -26 l29 -31 30 30 c17 17 41 30 55 30
29 0 49 21 71 74 22 54 21 82 -5 89 -12 3 -19 12 -17 19 7 20 218 24 218 4 0
-7 -10 -20 -22 -29 -13 -8 -44 -52 -69 -98 -132 -239 -135 -245 -101 -235 13
5 23 -1 33 -20 7 -15 23 -30 34 -35 17 -8 16 -9 -7 -6 -16 3 -33 -2 -39 -9
-18 -22 -39 -16 -50 13 -8 22 -12 24 -19 13 -17 -26 -11 -55 20 -102 50 -76
59 -80 166 -87 93 -6 97 -6 107 16 7 17 6 28 -7 48 l-17 26 29 -15 c16 -8 32
-12 35 -9 12 12 37 -20 37 -48 0 -37 33 -59 88 -59 34 0 48 6 67 26 32 34 33
78 3 98 -32 22 -45 20 -63 -11 l-15 -28 2 25 c2 17 12 28 30 34 56 20 100 -63
68 -125 -10 -17 -7 -19 23 -19 22 0 41 -8 53 -21 l19 -22 -32 17 c-39 20 -72
14 -109 -21 l-27 -24 7 24 c5 22 2 25 -35 30 -23 3 -52 15 -65 28 -21 19 -77
31 -87 18 -2 -2 0 -49 4 -105 10 -147 40 -198 149 -248 64 -30 80 -32 80 -10
0 14 2 14 22 0 46 -32 133 -10 139 34 4 34 -2 50 -22 61 -17 9 -25 7 -45 -12
-20 -18 -24 -20 -24 -6 0 22 36 40 66 33 35 -9 50 -46 35 -87 -14 -41 -14 -82
1 -130 10 -34 9 -42 -7 -59 -26 -29 -54 -34 -76 -14 -10 9 -19 22 -19 27 0 6
11 1 23 -12 28 -26 54 -19 63 15 11 45 -3 72 -44 85 -49 14 -94 -6 -118 -53
-15 -29 -15 -34 0 -65 15 -32 15 -33 -10 -50 -14 -9 -30 -26 -34 -37 -7 -18
-9 -15 -9 13 -1 19 -8 43 -17 52 -16 17 -15 19 10 29 16 6 33 24 41 42 7 18
23 44 35 58 l22 25 -34 5 c-18 3 -43 4 -56 1 -20 -3 -90 -79 -151 -162 -14
-20 -34 -220 -23 -230 21 -20 50 -18 78 6 16 13 48 27 72 31 39 6 43 9 37 28
-4 11 -8 30 -9 41 -2 11 -1 12 1 3 2 -9 15 -28 28 -42 44 -47 135 -27 135 29
0 31 -24 49 -56 41 -17 -5 -23 -3 -19 4 8 13 41 13 66 0 23 -13 25 -57 4 -87
-9 -12 -31 -25 -49 -28 -33 -7 -33 -7 -32 -62 1 -49 -2 -58 -25 -75 -16 -12
-34 -18 -45 -14 -24 7 -47 43 -37 59 5 8 9 3 13 -12 9 -37 33 -48 64 -28 33
22 35 66 3 103 -18 21 -32 27 -65 27 -59 0 -92 -25 -92 -68 0 -30 -4 -35 -27
-40 -64 -14 -62 -14 -53 10 13 34 1 65 -24 65 -11 -1 -52 -5 -91 -10 -77 -10
-156 2 -176 26 -6 8 -18 14 -26 14 -11 0 -7 -9 11 -31 14 -17 26 -36 26 -42
-1 -13 -95 -92 -122 -102 -20 -8 -128 80 -128 104 0 10 7 24 15 31 8 7 15 21
15 31 0 16 -6 15 -44 -13 l-45 -31 -102 12 c-82 9 -104 9 -111 -1 -13 -21 -9
-50 10 -72 10 -13 11 -16 2 -9 -8 6 -28 13 -44 15 -31 3 -41 16 -51 61 -8 39
-63 63 -110 47 -50 -16 -71 -47 -66 -97 2 -19 46 -44 64 -37 9 3 20 18 26 32
7 21 10 22 10 8 1 -24 -27 -56 -48 -56 -9 0 -29 12 -45 26 -28 27 -30 41 -11
102 6 19 4 22 -17 22 -40 0 -78 36 -78 74 0 17 5 37 12 44 14 14 64 16 72 3 3
-4 -11 -8 -32 -7 -35 1 -37 -1 -40 -34 -4 -42 16 -60 67 -60 38 1 60 13 80 45
11 18 11 17 6 -11 -6 -30 -5 -31 35 -37 23 -3 52 -15 64 -26 22 -20 71 -29 79
-13 2 4 1 48 -3 98 -8 108 -34 164 -113 243 -50 51 -59 55 -107 51 -35 -3 -36
-5 -6 -40 14 -17 26 -37 26 -43 0 -6 11 -22 24 -36 22 -24 23 -31 16 -91 -4
-36 -8 -53 -9 -38 0 16 -13 39 -31 55 -28 26 -29 31 -19 59 17 44 5 79 -37
105 -35 21 -39 21 -78 8 -33 -11 -43 -21 -53 -49 -11 -33 -12 -34 -12 -7 -1
15 8 35 19 44 11 10 20 27 20 39 0 11 -9 29 -20 39 -39 35 -12 115 38 115 11
0 27 -9 37 -20 10 -11 13 -20 8 -20 -6 0 -16 7 -23 15 -16 19 -29 19 -52 -2
-41 -37 -4 -103 58 -103 85 0 129 64 93 133 -9 16 -9 22 1 25 47 16 63 77 35
131 -17 33 -33 41 -84 41 -44 0 -61 -14 -61 -51 0 -35 21 -52 56 -43 19 5 25
4 20 -5 -9 -14 -41 -14 -67 -1 -48 26 -6 120 54 120 26 0 29 3 22 23 -16 53
-16 68 -1 92 33 50 106 36 106 -19 0 -20 -1 -20 -13 3 -6 13 -20 29 -29 35
-25 15 -58 -18 -58 -60 0 -44 38 -74 94 -74 54 0 81 20 84 60 3 44 8 50 42 50
65 0 95 105 45 155 -15 16 -36 25 -57 25 -26 1 -30 3 -16 10 11 7 26 7 43 0
39 -15 41 -14 54 30 6 22 21 44 31 50 18 10 20 22 20 106 l0 95 -35 20 c-64
38 -45 52 68 47 83 -3 90 -5 113 -31z m592 -220 c2 -12 -3 -17 -17 -17 -12 0
-21 6 -21 13 0 31 32 34 38 4z m-820 -24 c-4 -22 -22 -20 -26 1 -2 10 3 16 13
16 10 0 15 -7 13 -17z m699 10 c-31 -5 -50 -33 -40 -59 4 -12 3 -15 -5 -10
-15 9 -15 31 -2 57 8 13 20 19 43 18 30 -2 30 -2 4 -6z m69 -39 c3 -13 4 -30
1 -38 -8 -21 13 -25 43 -9 31 16 42 16 64 0 16 -12 14 -13 -16 -9 -24 3 -41
-3 -62 -19 -26 -20 -28 -26 -24 -75 5 -61 -9 -63 -18 -3 -5 32 -10 39 -23 34
-9 -4 -29 -9 -46 -11 -26 -5 -25 -3 11 14 53 25 74 75 51 121 -12 25 -12 29
-1 24 8 -3 17 -16 20 -29z m-997 -11 c5 -10 11 -27 12 -38 2 -11 7 -22 10 -25
4 -3 9 -15 13 -27 l7 -22 -53 21 c-86 35 -90 40 -57 82 24 30 54 34 68 9z
m1338 2 c25 -17 35 -51 19 -64 -6 -5 -35 -18 -64 -29 l-53 -20 7 21 c15 53 44
107 56 107 8 0 23 -7 35 -15z m-1257 3 c0 -2 -6 -23 -14 -48 -12 -40 -14 -42
-20 -22 -10 31 1 72 19 72 8 0 15 -1 15 -2z m1151 -30 c11 -40 -6 -56 -20 -17
-14 41 -14 52 1 47 7 -3 15 -16 19 -30z m-1107 -57 c-5 -22 -1 -32 17 -45 26
-18 18 -22 -12 -6 -19 11 -24 35 -13 64 10 26 14 18 8 -13z m1026 -13 c0 -24
-28 -48 -53 -47 -20 1 -21 2 -2 6 36 9 47 25 41 57 -4 22 -3 27 4 16 5 -8 10
-23 10 -32z m-1135 -28 c18 -8 17 -9 -8 -9 -16 -1 -37 -6 -49 -12 -23 -12 -33
-6 -25 16 7 16 49 19 82 5z m1333 -11 c2 -13 -3 -14 -42 -5 -28 6 -41 13 -33
18 20 13 72 4 75 -13z m-1460 -156 c-4 -22 -22 -20 -26 1 -2 10 3 16 13 16 10
0 15 -7 13 -17z m1522 10 c0 -17 -19 -35 -29 -29 -18 12 -12 36 9 36 11 0 20
-3 20 -7z m-36 -170 c-20 -15 -60 -17 -68 -4 -3 5 9 8 27 7 28 -1 33 3 42 34
l10 34 3 -29 c3 -19 -2 -33 -14 -42z m-1564 -29 c0 -8 -9 -14 -20 -14 -22 0
-28 26 -7 33 16 6 27 -1 27 -19z m1680 1 c0 -8 -6 -15 -14 -15 -17 0 -28 14
-19 24 12 12 33 6 33 -9z m-228 -91 c-12 -27 -18 -31 -33 -23 -27 14 -32 27
-25 73 l7 43 33 -30 c34 -30 34 -31 18 -63z m-1494 -79 c25 -31 24 -36 -6 -21
-31 16 -46 41 -36 58 5 7 12 4 20 -8 7 -10 17 -23 22 -29z m1782 27 c0 -21
-21 -43 -60 -62 l-25 -12 23 22 c13 12 27 33 32 46 11 28 30 32 30 6z m-1841
-51 c14 -10 30 -17 36 -15 11 5 43 -23 34 -29 -10 -6 -100 -47 -104 -47 -12 0
-35 35 -35 55 0 22 23 55 38 55 4 0 18 -9 31 -19z m1927 -15 c7 -31 -2 -62
-21 -70 -8 -3 -40 6 -72 20 l-58 26 45 24 c61 31 98 31 106 0z m-1853 -69
c-11 -12 -23 -30 -26 -39 -7 -21 -23 -23 -33 -6 -4 6 8 25 30 45 41 37 62 37
29 0z m1737 6 c31 -18 45 -49 27 -60 -6 -3 -13 -1 -15 6 -2 6 -15 25 -29 41
-28 34 -24 37 17 13z m-1653 -103 c6 0 16 7 23 15 16 19 31 20 24 1 -12 -31
-94 -26 -94 6 0 6 8 4 18 -5 10 -10 23 -17 29 -17z m1135 -420 c-3 -43 -1 -52
24 -75 36 -33 78 -33 101 1 20 31 10 55 -28 65 -24 7 -24 7 3 8 46 2 63 -50
28 -87 -23 -24 -77 -30 -111 -12 -17 9 -19 7 -19 -18 0 -40 -35 -82 -67 -82
-49 0 -77 44 -52 80 8 12 10 9 6 -13 -8 -48 37 -73 77 -44 13 10 19 27 19 57
0 36 -6 48 -29 69 l-29 24 28 -6 c24 -7 27 -5 27 18 0 22 15 65 23 65 1 0 0
-22 -1 -50z m-708 -37 c6 2 22 7 36 11 23 6 23 6 5 -5 -67 -39 -86 -98 -45
-139 37 -37 76 -23 82 30 l4 35 8 -28 c15 -51 -42 -85 -94 -57 -11 6 -25 28
-31 50 -13 44 -12 44 -55 31 -18 -5 -37 -5 -45 0 -10 6 -6 9 13 9 14 0 34 3
43 6 22 9 45 56 46 96 l2 33 10 -38 c6 -21 15 -36 21 -34z m-149 23 c-27 -22
-28 -26 -17 -51 12 -25 11 -27 -2 -15 -23 18 -20 56 6 74 35 25 46 18 13 -8z
m351 -5 c7 -13 30 -31 51 -41 22 -10 49 -30 62 -46 l22 -29 15 23 c9 12 21 22
27 22 5 0 3 -8 -6 -18 -23 -25 -21 -78 4 -113 23 -33 44 -36 77 -13 27 18 28
41 5 67 -17 19 -17 20 5 8 34 -18 30 -66 -8 -86 -42 -22 -58 -19 -92 15 l-30
30 -28 -30 c-31 -33 -64 -38 -98 -14 -24 17 -30 62 -10 82 19 19 33 14 15 -6
-22 -24 -21 -45 3 -67 27 -24 66 -13 86 26 22 43 11 91 -28 124 -31 26 -48 28
-93 9 -16 -6 -18 -5 -9 7 6 8 15 25 19 37 6 20 4 23 -11 20 -11 -2 -21 -15
-24 -30 l-5 -27 -22 24 -21 25 24 0 c14 0 27 7 31 15 7 21 25 14 39 -14z
m-461 -2 c3 -10 -5 -43 -18 -76 -27 -68 -53 -79 -86 -37 -11 15 -21 31 -21 35
0 5 20 19 45 31 46 22 50 38 11 38 -13 0 -29 6 -35 14 -9 11 -1 13 44 12 42 0
56 -4 60 -17z m1313 9 c-5 -15 -53 -23 -76 -12 -13 6 -11 9 13 14 48 12 67 11
63 -2z m-498 -8 c16 -5 19 -8 8 -9 -10 -1 -22 -9 -27 -18 -26 -46 -27 -46 -61
-28 -17 9 -39 14 -48 10 -21 -8 -12 1 30 31 35 24 56 27 98 14z m462 -42 c36
-16 48 -27 48 -43 0 -45 -61 -72 -81 -35 -36 68 -43 100 -22 100 4 0 28 -10
55 -22z m-1237 -65 c8 -26 -6 -31 -25 -8 -8 10 -10 27 -5 52 l8 38 8 -30 c4
-16 11 -40 14 -52z m1155 21 c0 -33 -4 -44 -15 -44 -12 0 -14 6 -8 28 4 15 7
37 8 49 0 42 15 11 15 -33z m-630 -184 c0 -17 -47 -60 -65 -60 -23 0 -18 19 8
29 13 5 29 16 36 25 16 19 21 20 21 6z m116 -30 c8 0 14 -7 14 -15 0 -32 -47
-9 -70 34 l-13 24 28 -21 c15 -12 34 -22 41 -22z m-59 -27 c25 -55 25 -57 7
-70 -28 -21 -78 -13 -82 13 -3 21 32 114 43 114 3 0 18 -25 32 -57z m-262
-387 c26 -19 21 -78 -12 -135 -73 -126 -408 -555 -611 -784 -362 -408 -1245
-1158 -1817 -1543 -119 -80 -175 -124 -175 -136 0 -24 114 -251 186 -369 170
-282 400 -556 515 -615 29 -14 75 -28 103 -31 53 -5 61 -3 244 61 127 44 169
47 178 11 4 -15 1 -32 -6 -40 -17 -21 -303 -169 -384 -200 -98 -37 -183 -35
-265 6 -119 60 -347 319 -507 576 -34 55 -109 185 -165 290 -57 106 -108 188
-112 184 -15 -14 -218 -751 -457 -1656 -56 -210 -76 -247 -115 -215 -66 55 80
745 364 1718 l10 33 -57 -33 c-31 -17 -151 -90 -267 -161 -252 -156 -294 -177
-358 -177 -41 0 -49 3 -59 25 -14 31 0 84 44 158 144 245 342 412 618 518 131
50 145 57 177 89 34 33 47 66 94 234 113 399 314 1024 406 1261 70 180 150
321 231 407 58 63 97 84 119 67 22 -19 10 -59 -58 -192 -96 -187 -156 -350
-307 -827 -287 -908 -306 -973 -286 -987 10 -7 21 -13 25 -13 12 0 280 182
424 289 611 449 1160 950 1622 1476 165 188 452 540 443 543 -6 2 -53 -17
-105 -42 -74 -36 -105 -46 -145 -46 -37 0 -52 4 -57 16 -9 24 21 79 59 107 27
20 157 73 333 135 43 15 108 14 130 -2z m2059 -562 c9 -8 16 -24 16 -34 0 -23
-69 -219 -270 -775 -84 -231 -188 -519 -231 -639 -44 -120 -78 -221 -75 -223
2 -2 44 47 94 110 155 193 248 263 317 237 106 -40 72 -437 -60 -705 -118
-238 -327 -375 -521 -342 l-64 11 -33 -32 c-29 -28 -35 -31 -52 -19 -16 12
-17 23 -12 78 4 35 10 75 13 88 5 15 -27 -12 -87 -75 -144 -150 -169 -172
-234 -204 -65 -33 -144 -42 -183 -21 -34 18 -52 64 -52 131 0 63 -11 76 -31
38 -40 -75 -190 -236 -254 -273 -82 -47 -155 -41 -200 19 -39 52 -56 135 -62
314 -3 89 -9 162 -14 162 -21 0 -210 -283 -362 -542 -32 -53 -71 -108 -88
-122 -56 -47 -108 -48 -124 -2 -8 25 3 66 84 300 51 149 96 282 99 296 4 19
-19 1 -101 -77 -59 -57 -124 -114 -146 -128 -27 -19 -44 -40 -56 -73 -93 -246
-289 -484 -438 -532 -74 -23 -152 14 -182 87 -32 76 -13 222 45 349 42 92 45
116 21 163 -28 54 -27 67 16 152 43 87 174 224 264 277 66 38 149 58 203 48
86 -16 141 -120 134 -251 -2 -48 0 -65 10 -65 7 0 84 71 171 158 l158 157 153
465 c188 572 247 759 306 965 25 88 55 175 67 192 38 56 103 66 143 22 27 -30
13 -111 -64 -349 -86 -269 -369 -1069 -532 -1508 -30 -81 -5 -60 64 54 182
301 250 384 315 384 31 0 53 -39 42 -76 -21 -74 -33 -248 -29 -414 5 -169 14
-225 41 -242 23 -15 71 -8 113 17 73 43 240 268 309 418 66 143 485 1350 600
1731 21 70 25 94 16 108 -20 33 -11 48 49 78 66 33 111 38 134 14 30 -29 26
-44 -106 -459 -108 -340 -259 -759 -471 -1305 -63 -162 -120 -319 -126 -348
-25 -121 -8 -153 70 -132 62 17 112 52 217 154 167 161 165 158 228 378 83
290 170 555 305 938 119 337 221 645 255 765 23 83 66 125 127 125 28 0 52 -6
61 -16z m2007 -754 c54 -29 72 -146 41 -267 -41 -162 -110 -304 -212 -438 -55
-70 -60 -91 -31 -126 l18 -23 59 26 c74 33 122 45 204 54 81 7 123 -6 118 -39
-3 -19 -19 -27 -108 -55 -157 -50 -180 -61 -180 -87 0 -13 8 -29 17 -36 35
-29 132 -171 151 -221 45 -122 37 -221 -29 -348 -108 -209 -334 -432 -544
-538 -71 -36 -237 -89 -335 -107 -324 -61 -530 33 -530 240 0 69 20 146 57
220 111 217 446 507 886 765 70 41 127 80 127 86 0 6 -6 17 -14 23 -10 9 -26
5 -67 -14 -62 -29 -89 -31 -128 -10 -39 20 -55 64 -47 130 8 74 147 474 188
542 44 73 136 155 221 198 72 36 105 42 138 25z m-528 -168 c47 -42 68 -136
43 -195 -18 -44 -42 -48 -76 -12 -46 49 -72 37 -189 -82 -115 -117 -191 -223
-266 -373 -47 -93 -127 -289 -140 -343 -8 -31 -49 -67 -77 -67 -27 0 -94 36
-102 55 -12 33 -5 67 30 136 39 78 56 119 49 119 -2 0 -39 -44 -82 -97 -140
-177 -279 -295 -430 -365 -115 -54 -189 -41 -238 43 -17 29 -20 51 -19 139 1
58 8 133 16 166 l16 62 -25 25 c-34 34 -25 69 26 101 44 28 55 42 141 186 118
196 214 299 307 326 72 21 128 11 165 -28 40 -43 40 -122 -2 -194 -44 -77
-167 -177 -306 -247 -51 -26 -52 -27 -101 -144 -62 -147 -92 -265 -73 -287 20
-25 46 -19 133 29 169 96 281 192 394 343 115 153 233 360 233 409 0 12 -13
37 -29 56 -42 47 -46 74 -18 122 27 48 108 105 149 105 17 0 39 -10 53 -25 32
-31 33 -101 5 -200 -23 -81 -22 -75 -12 -75 4 0 32 36 61 79 144 217 284 306
364 233z m-5763 -3489 c0 -120 10 -143 63 -143 57 0 67 20 67 142 0 101 1 108
20 108 19 0 20 -7 20 -113 0 -111 -1 -114 -27 -139 -37 -35 -83 -44 -122 -24
-53 28 -61 49 -61 168 0 101 1 108 20 108 19 0 20 -7 20 -107z m401 6 l84
-100 3 100 c2 93 4 101 22 101 19 0 20 -8 20 -145 0 -80 -4 -145 -9 -145 -4 0
-46 45 -92 100 l-84 101 -3 -101 c-2 -92 -4 -100 -22 -100 -19 0 -20 8 -20
145 0 80 4 145 8 145 5 0 47 -45 93 -101z m498 -10 c25 -60 48 -112 51 -114 4
-3 27 47 51 110 38 99 47 115 67 115 12 0 22 -4 22 -8 0 -23 -121 -277 -133
-280 -8 -2 -19 3 -25 10 -9 12 -122 264 -122 274 0 2 10 4 23 4 19 0 28 -16
66 -111z m349 -31 c-3 -127 -5 -143 -20 -146 -17 -3 -18 9 -18 142 0 140 1
146 20 146 20 0 20 -5 18 -142z m232 42 l85 -100 3 100 c2 92 4 100 22 100 19
0 20 -8 20 -145 0 -86 -4 -145 -10 -145 -5 0 -46 46 -92 101 l-83 102 -5 -99
c-4 -84 -8 -99 -22 -102 -17 -3 -18 9 -18 142 0 80 4 146 8 146 4 0 46 -45 92
-100z m476 71 c36 -26 54 -66 54 -116 0 -64 -28 -108 -82 -130 -76 -30 -142
-3 -179 71 -36 75 -9 151 66 185 45 22 105 17 141 -10z m517 9 c40 -19 67 -69
67 -124 0 -95 -46 -136 -162 -144 l-68 -5 0 148 0 148 68 -5 c37 -3 79 -11 95
-18z m327 5 c0 -11 -12 -15 -50 -15 l-50 0 0 -50 0 -50 45 0 c33 0 45 -4 45
-15 0 -11 -12 -15 -45 -15 l-45 0 0 -50 0 -50 56 0 c40 0 55 -3 52 -12 -3 -9
-30 -14 -76 -16 l-72 -3 0 146 0 145 70 0 c56 0 70 -3 70 -15z m370 -97 c25
-59 48 -109 51 -112 3 -3 26 45 50 107 37 91 49 113 67 115 12 2 22 1 22 -1 0
-5 -86 -207 -110 -259 -19 -40 -45 -35 -63 10 -9 20 -36 84 -61 141 -25 57
-46 106 -46 108 0 2 10 3 22 1 18 -2 31 -24 68 -110z m450 97 c0 -11 -12 -15
-50 -15 l-50 0 0 -53 0 -52 45 3 c36 3 45 1 45 -12 0 -12 -10 -16 -45 -16
l-45 0 0 -50 0 -50 55 0 c42 0 55 -3 55 -15 0 -12 -15 -15 -75 -15 l-75 0 0
145 0 145 70 0 c56 0 70 -3 70 -15z m256 -4 c17 -11 34 -31 38 -45 7 -29 -16
-84 -40 -93 -12 -4 -8 -18 21 -69 34 -63 34 -64 12 -64 -19 0 -29 12 -52 59
-29 63 -64 87 -66 48 -3 -97 -4 -102 -21 -105 -17 -3 -18 9 -18 142 l0 146 48
0 c29 0 59 -7 78 -19z m341 -5 c42 -21 63 -63 63 -121 0 -97 -60 -145 -182
-145 l-48 0 0 146 0 147 68 -5 c37 -3 82 -12 99 -22z m364 -119 c33 -76 59
-140 59 -143 0 -2 -9 -4 -21 -4 -13 0 -25 11 -35 35 l-14 35 -68 0 c-68 0 -68
0 -85 -35 -11 -23 -24 -35 -37 -35 -25 0 -25 -2 4 62 13 29 32 73 43 98 56
129 57 131 77 128 14 -2 34 -38 77 -141z m348 121 c61 -37 81 -137 42 -202
-26 -42 -61 -57 -143 -64 l-68 -5 0 148 0 148 74 -6 c40 -3 83 -11 95 -19z
m-5424 -143 l0 -50 -70 3 c-38 2 -236 12 -440 23 -203 10 -403 19 -444 19
-115 0 -76 12 56 17 65 3 267 13 448 23 182 10 357 17 390 16 l60 -1 0 -50z
m6400 30 c149 -8 313 -16 365 -16 119 -2 189 -16 86 -18 -95 -1 -829 -39 -893
-46 l-52 -5 -6 34 c-4 19 -4 44 0 56 7 22 10 22 119 16 61 -4 233 -13 381 -21z"/>
<path d="M5272 9428 c-15 -15 -16 -55 -1 -64 8 -5 6 -10 -5 -16 -10 -6 -16
-22 -16 -43 0 -43 26 -60 67 -44 35 13 25 2 -18 -19 -19 -10 -36 -28 -40 -42
-10 -36 -10 -110 -1 -110 5 0 37 25 71 56 78 71 110 141 79 172 -9 9 -16 4
-30 -19 -24 -39 -34 -33 -13 7 8 16 15 42 15 57 0 54 -74 99 -108 65z"/>
<path d="M5463 9430 c-31 -13 -46 -46 -38 -86 3 -19 9 -34 13 -34 9 0 62 104
62 120 0 12 -7 12 -37 0z"/>
<path d="M5050 9351 c-13 -25 -13 -44 2 -76 18 -41 28 -29 28 35 0 61 -11 76
-30 41z"/>
<path d="M5552 9248 c-15 -15 -16 -38 -2 -38 12 0 23 25 18 40 -2 7 -7 7 -16
-2z"/>
<path d="M5047 9193 c-3 -16 -17 -45 -32 -67 -32 -47 -29 -77 7 -90 44 -15 58
5 58 84 0 70 -6 100 -20 100 -4 0 -10 -12 -13 -27z"/>
<path d="M5284 9089 l-29 -30 -5 -194 c-7 -256 10 -239 -225 -243 -97 -2 -173
-8 -172 -13 1 -5 24 -32 50 -61 58 -62 87 -122 87 -180 1 -58 16 -119 32 -129
18 -11 114 -23 126 -15 7 4 6 18 0 40 -14 45 3 88 44 114 l30 19 -36 28 c-42
32 -37 53 20 80 52 24 100 13 146 -36 20 -21 41 -39 45 -39 4 1 20 18 35 40
15 22 39 42 54 46 34 9 97 -11 130 -40 l27 -23 -32 -22 c-39 -28 -39 -41 0
-70 28 -21 30 -26 28 -79 l-2 -57 54 2 c99 4 95 1 104 104 8 112 21 142 90
220 31 34 53 64 51 67 -3 2 -47 4 -99 3 -140 -2 -180 21 -265 153 -25 39 -75
112 -111 161 -80 110 -88 123 -102 158 -14 35 -38 34 -75 -4z m133 -412 c8
-17 7 -44 -5 -103 l-16 -79 -13 45 c-22 74 -27 128 -13 145 18 21 35 19 47 -8z"/>
<path d="M5830 9078 c-13 -14 -17 -24 -9 -27 16 -5 54 35 41 43 -6 4 -20 -4
-32 -16z"/>
<path d="M4932 9078 c6 -16 36 -34 44 -25 9 9 -15 37 -33 37 -8 0 -13 -5 -11
-12z"/>
<path d="M4919 9024 c-20 -24 -65 -44 -99 -44 -30 0 -31 -1 -16 -22 11 -15 16
-45 16 -90 0 -37 5 -70 10 -73 16 -10 12 -23 -9 -30 -10 -3 -26 -23 -36 -45
-10 -22 -24 -45 -32 -51 -20 -17 -16 -29 12 -29 46 0 99 30 135 76 19 25 43
56 53 68 13 16 20 49 25 130 7 96 6 109 -10 117 -24 13 -34 11 -49 -7z"/>
<path d="M5610 9017 c0 -9 4 -18 9 -21 5 -3 38 -47 74 -98 37 -51 84 -111 107
-133 41 -40 53 -38 24 3 -10 14 -19 63 -26 130 -5 59 -13 110 -17 115 -4 4
-44 10 -89 14 -71 5 -82 4 -82 -10z"/>
<path d="M5006 9008 c-2 -7 -8 -54 -14 -104 -12 -103 -36 -160 -83 -197 -48
-37 -32 -47 37 -23 120 42 134 64 134 218 l0 118 -35 0 c-20 0 -37 -6 -39 -12z"/>
<path d="M4778 8784 c13 -9 30 -13 38 -10 24 9 6 26 -29 26 l-31 0 22 -16z"/>
<path d="M4775 8469 c-4 -6 -5 -13 -2 -16 8 -7 47 7 47 18 0 13 -37 11 -45 -2z"/>
<path d="M5982 8468 c3 -7 15 -15 28 -16 21 -3 22 -2 11 12 -16 19 -44 21 -39
4z"/>
<path d="M4958 8203 c-16 -4 -33 -32 -24 -40 8 -9 46 18 46 32 0 8 -1 14 -2
14 -2 -1 -10 -3 -20 -6z"/>
<path d="M5820 8197 c0 -17 20 -37 37 -37 10 0 11 5 4 19 -13 23 -41 35 -41
18z"/>
<path d="M5980 8785 c0 -19 21 -19 46 0 18 14 17 14 -13 15 -23 0 -33 -5 -33
-15z"/>
<path d="M5546 8032 c-3 -5 1 -18 9 -28 14 -18 14 -18 15 3 0 23 -15 39 -24
25z"/>
<path d="M2063 4661 c-73 -38 -166 -93 -207 -121 -76 -52 -217 -185 -237 -222
-13 -24 -31 -34 176 101 88 57 212 138 275 179 63 40 121 81 128 90 13 17 16
42 5 42 -5 0 -68 -31 -140 -69z"/>
<path d="M6865 5131 c-100 -101 -186 -228 -270 -395 -76 -151 -87 -189 -59
-200 34 -13 119 -5 161 15 104 50 188 223 232 479 12 69 24 135 26 148 9 40
-20 25 -90 -47z"/>
<path d="M4282 4660 c-38 -20 -81 -53 -116 -91 -56 -60 -73 -95 -62 -125 5
-12 17 -1 51 45 46 63 116 121 145 121 9 0 21 -5 28 -12 28 -28 9 -82 -74
-210 l-44 -68 54 0 c30 0 83 9 120 20 61 19 66 23 76 58 69 250 1 351 -178
262z"/>
<path d="M4350 4237 c-38 -14 -80 -20 -133 -20 l-79 -1 -43 -85 c-73 -147
-106 -284 -70 -297 8 -4 30 -3 49 0 42 8 138 100 208 201 51 73 133 214 127
219 -2 2 -29 -6 -59 -17z"/>
<path d="M9135 5876 c-9 -13 -38 -73 -64 -132 -27 -60 -67 -147 -90 -193 -33
-69 -41 -96 -41 -140 0 -62 8 -101 20 -101 16 0 111 137 149 215 72 148 118
328 91 360 -18 22 -47 18 -65 -9z"/>
<path d="M8992 4989 c-25 -10 -255 -154 -367 -231 -335 -230 -597 -498 -636
-648 -23 -87 31 -152 136 -165 152 -19 508 103 704 242 138 98 278 251 329
360 22 48 27 72 27 138 0 89 -20 139 -96 242 -46 62 -65 74 -97 62z"/>
<path d="M7665 5549 c-29 -35 -65 -102 -95 -179 -18 -46 -19 -50 -2 -41 41 22
112 95 131 134 25 51 28 117 7 117 -8 0 -26 -14 -41 -31z"/>
<path d="M4753 2402 c-27 -20 -44 -73 -37 -110 16 -80 108 -110 165 -53 24 24
29 38 29 77 0 65 -35 104 -94 104 -23 0 -51 -8 -63 -18z"/>
<path d="M5288 2315 l3 -105 40 0 c43 0 77 14 96 39 13 17 17 81 7 119 -9 30
-53 52 -106 52 l-43 0 3 -105z"/>
<path d="M6730 2375 c0 -45 0 -45 35 -45 28 0 38 5 46 24 17 37 -3 66 -46 66
-35 0 -35 0 -35 -45z"/>
<path d="M7030 2312 l0 -109 33 4 c60 7 76 13 97 35 20 22 27 78 14 124 -8 29
-55 54 -103 54 l-41 0 0 -108z"/>
<path d="M7437 2393 c-3 -5 -15 -32 -26 -61 l-21 -52 50 0 c28 0 50 1 50 3 0
17 -49 117 -53 110z"/>
<path d="M7740 2315 l0 -105 49 0 c43 0 53 4 75 31 19 23 26 42 26 74 0 32 -7
51 -26 74 -22 27 -32 31 -75 31 l-49 0 0 -105z"/>
</g>
</svg>
